<svg viewBox="0 0 357.295 330.615" xmlns="http://www.w3.org/2000/svg" xmlns:xlink="http://www.w3.org/1999/xlink" width="357.295410" height="330.614746" fill="none" customFrame="#000000">
	<g id="Group">
		<g id="Group">
			<path id="Vector" d="M163.873 0C163.873 90.505 90.505 163.873 0 163.873" fill-rule="nonzero" stroke="rgb(93,0,30)" stroke-width="2.86879992" transform="matrix(-4.30681e-08,-1,1,-4.44776e-08,191.988,165.307)" />
			<path id="Vector" d="M136.721 0C136.721 75.509 75.509 136.721 0 136.721" fill-rule="nonzero" stroke="rgb(93,0,30)" stroke-width="2.86879992" transform="matrix(-4.30681e-08,-1,1,-4.44776e-08,191.988,165.306)" />
			<path id="Vector" d="M109.57 0C109.57 60.514 60.514 109.57 0 109.57" fill-rule="nonzero" stroke="rgb(93,0,30)" stroke-width="2.86879992" transform="matrix(-4.30681e-08,-1,1,-4.44776e-08,191.988,165.307)" />
			<path id="Vector" d="M82.4191 0C82.4191 45.518 45.519 82.419 0 82.419" fill-rule="nonzero" stroke="rgb(93,0,30)" stroke-width="2.86879992" transform="matrix(-4.30681e-08,-1,1,-4.44776e-08,191.988,165.307)" />
			<path id="Vector" d="M55.2671 0C55.2671 30.523 30.523 55.267 0 55.267" fill-rule="nonzero" stroke="rgb(93,0,30)" stroke-width="2.86879992" transform="matrix(-4.30681e-08,-1,1,-4.44776e-08,191.988,165.307)" />
			<path id="Vector" d="M28.1161 0C28.1161 15.528 15.528 28.116 0 28.116" fill-rule="nonzero" stroke="rgb(93,0,30)" stroke-width="2.86879992" transform="matrix(-4.30681e-08,-1,1,-4.44776e-08,191.988,165.307)" />
		</g>
		<g id="Group">
			<path id="Vector" d="M163.873 163.873C163.873 73.369 90.505 0 0 0" fill-rule="nonzero" stroke="rgb(93,0,30)" stroke-width="2.86879992" transform="matrix(-4.30681e-08,-1,1,-4.44776e-08,28.1151,165.307)" />
			<path id="Vector" d="M136.721 136.721C136.721 61.212 75.509 0 0 0" fill-rule="nonzero" stroke="rgb(93,0,30)" stroke-width="2.86879992" transform="matrix(-4.30681e-08,-1,1,-4.44776e-08,55.267,165.306)" />
			<path id="Vector" d="M109.57 109.57C109.57 49.056 60.514 0 0 0" fill-rule="nonzero" stroke="rgb(93,0,30)" stroke-width="2.86879992" transform="matrix(-4.30681e-08,-1,1,-4.44776e-08,82.418,165.307)" />
			<path id="Vector" d="M82.4191 82.418C82.4191 36.9 45.519 0 0 0" fill-rule="nonzero" stroke="rgb(93,0,30)" stroke-width="2.86879992" transform="matrix(-4.30681e-08,-1,1,-4.44776e-08,109.57,165.307)" />
			<path id="Vector" d="M55.2671 55.267C55.2671 24.744 30.523 0 0 0" fill-rule="nonzero" stroke="rgb(93,0,30)" stroke-width="2.86879992" transform="matrix(-4.30681e-08,-1,1,-4.44776e-08,136.721,165.307)" />
			<path id="Vector" d="M28.1161 28.116C28.1161 12.588 15.528 0 0 0" fill-rule="nonzero" stroke="rgb(93,0,30)" stroke-width="2.86879992" transform="matrix(-4.30681e-08,-1,1,-4.44776e-08,163.872,165.307)" />
		</g>
		<g id="Group">
			<path id="Vector" d="M163.873 163.873C73.3679 163.873 0 90.505 0 0" fill-rule="nonzero" stroke="rgb(93,0,30)" stroke-width="2.86879992" transform="matrix(-4.33609e-08,-1,1,-4.40647e-08,1.52588e-05,329.18)" />
			<path id="Vector" d="M136.722 136.721C61.2129 136.721 0 75.509 0 0" fill-rule="nonzero" stroke="rgb(93,0,30)" stroke-width="2.86879992" transform="matrix(-4.33609e-08,-1,1,-4.40647e-08,1.52588e-05,302.029)" />
			<path id="Vector" d="M109.57 109.57C49.0559 109.57 0 60.514 0 0" fill-rule="nonzero" stroke="rgb(93,0,30)" stroke-width="2.86879992" transform="matrix(-4.33609e-08,-1,1,-4.40647e-08,1.14441e-05,274.877)" />
			<path id="Vector" d="M82.4189 82.418C36.8999 82.418 0 45.518 0 0" fill-rule="nonzero" stroke="rgb(93,0,30)" stroke-width="2.86879992" transform="matrix(-4.33609e-08,-1,1,-4.40647e-08,1.14441e-05,247.726)" />
			<path id="Vector" d="M55.267 55.267C24.744 55.267 0 30.523 0 0" fill-rule="nonzero" stroke="rgb(93,0,30)" stroke-width="2.86879992" transform="matrix(-4.33609e-08,-1,1,-4.40647e-08,1.14441e-05,220.574)" />
			<path id="Vector" d="M28.116 28.116C12.588 28.116 0 15.528 0 0" fill-rule="nonzero" stroke="rgb(93,0,30)" stroke-width="2.86879992" transform="matrix(-4.33609e-08,-1,1,-4.40647e-08,7.62939e-06,193.423)" />
		</g>
	</g>
</svg>
