<svg viewBox="0 0 5.73337 9.96704" xmlns="http://www.w3.org/2000/svg" xmlns:xlink="http://www.w3.org/1999/xlink" width="5.733368" height="9.967041" fill="none" customFrame="#000000">
	<path id="Vector" d="M3.92303 4.98353L0.210534 1.27103C0.0739153 1.12958 -0.00168046 0.94013 2.8352e-05 0.743483C0.00173717 0.546835 0.0806139 0.358726 0.21967 0.21967C0.358726 0.0806138 0.546835 0.00173717 0.743483 2.83519e-05C0.940131 -0.00168046 1.12958 0.0739153 1.27103 0.210534L5.51378 4.45328C5.65439 4.59393 5.73337 4.78466 5.73337 4.98353C5.73337 5.18241 5.65439 5.37314 5.51378 5.51378L1.27103 9.75653C1.12958 9.89315 0.940131 9.96875 0.743483 9.96704C0.546835 9.96533 0.358726 9.88645 0.21967 9.7474C0.0806139 9.60834 0.00173717 9.42023 2.8352e-05 9.22358C-0.00168046 9.02694 0.0739153 8.83748 0.210534 8.69603L3.92303 4.98353L3.92303 4.98353Z" fill="rgb(101,107,112)" fill-rule="nonzero" />
</svg>
